G04 format : xxx.xxx unité : millimètre *
%FSLAX33Y33*
MOMM*
OFA0B0*
SFA1B1*
IPPOS*%
G04 définition des ouvertures pour les pistes *
%ADD10C,1.270*%
G04 définition des ouvertures pour les pastilles rondes *
%ADD11C,2.220X0.2*%
G04 définition des ouvertures pour le texte *
%ADD12C,0.167*%
%ADD13C,0.250*%
G04 tracé du CI *
G54D10*
G01X114300Y107370D02*
X114300Y102290D01*
G01X114300Y122610D02*
X114300Y114990D01*
G01X93980Y120070D02*
X93980Y122610D01*
G54D12*
G01X120520Y106970D02*
X119720Y106970D01*
G01X120120Y107370D02*
X120120Y106570D01*
G01X121620Y107370D02*
X121220Y106470D01*
G01X121220Y106470D02*
X120820Y107370D01*
G54D10*
G01X123190Y97210D02*
X123190Y94670D01*
G01X123190Y99750D02*
X120650Y99750D01*
G01X120650Y99750D02*
X120650Y83240D01*
G01X120650Y83240D02*
X123190Y83240D01*
G01X123190Y94670D02*
X133350Y94670D01*
G01X133350Y94670D02*
X133350Y102290D01*
G01X133350Y102290D02*
X137160Y102290D01*
G01X133350Y94670D02*
X133350Y83240D01*
G01X133350Y83240D02*
X130810Y83240D01*
G01X133350Y89590D02*
X129540Y89590D01*
G01X179070Y99750D02*
X179070Y97210D01*
G01X179070Y97210D02*
X189230Y97210D01*
G01X189230Y97210D02*
X189230Y104830D01*
G01X179070Y90860D02*
X176530Y90860D01*
G01X176530Y90860D02*
X176530Y102290D01*
G01X186690Y90860D02*
X189230Y90860D01*
G01X189230Y90860D02*
X189230Y99750D01*
G01X189230Y90860D02*
X189230Y84510D01*
G01X189230Y84510D02*
X185420Y84510D01*
G01X176530Y90860D02*
X176530Y84510D01*
G54D12*
G01X176400Y110780D02*
X175600Y110780D01*
G01X176000Y111180D02*
X176000Y110380D01*
G01X177500Y111180D02*
X177100Y110280D01*
G01X177100Y110280D02*
X176700Y111180D01*
G54D10*
G01X120650Y83240D02*
X113030Y83240D01*
G54D12*
G01X198160Y136580D02*
X197760Y135680D01*
G01X197760Y135680D02*
X197360Y136580D01*
G01X198460Y136580D02*
X199160Y136580D01*
G01X199160Y136580D02*
X199160Y136180D01*
G01X199160Y136180D02*
X198660Y136180D01*
G01X198660Y136180D02*
X198460Y135980D01*
G01X198460Y135980D02*
X198460Y135880D01*
G01X198460Y135880D02*
X198660Y135680D01*
G01X198660Y135680D02*
X199160Y135680D01*
G01X199160Y135680D02*
X199260Y135780D01*
G01X200360Y136180D02*
X199560Y136180D01*
G01X199960Y136580D02*
X199960Y135780D01*
G01X189270Y111180D02*
X189270Y110280D01*
G01X189270Y110280D02*
X188670Y110280D01*
G01X188670Y110280D02*
X188470Y110480D01*
G01X188470Y110480D02*
X188470Y110980D01*
G01X188470Y110980D02*
X188670Y111180D01*
G01X188670Y111180D02*
X189270Y111180D01*
G01X190370Y110280D02*
X190370Y111180D01*
G01X190370Y111180D02*
X189570Y110280D01*
G01X189570Y110280D02*
X189570Y111180D01*
G01X190670Y110980D02*
X190870Y111180D01*
G01X190870Y111180D02*
X191270Y111180D01*
G01X191270Y111180D02*
X191470Y110980D01*
G01X191470Y110980D02*
X191470Y110480D01*
G01X191470Y110480D02*
X191270Y110280D01*
G01X191270Y110280D02*
X190870Y110280D01*
G01X190870Y110280D02*
X190670Y110480D01*
G01X190670Y110480D02*
X190670Y110680D01*
G01X190670Y110680D02*
X190970Y110680D01*
G54D10*
G01X123190Y104830D02*
X118110Y104830D01*
G01X85090Y78160D02*
X201930Y78160D01*
G01X91440Y95940D02*
X85090Y95940D01*
G01X179070Y107370D02*
X173990Y107370D01*
G01X201930Y121340D02*
X201930Y95940D01*
G01X104140Y107370D02*
X104140Y95940D01*
G01X104140Y95940D02*
X91440Y95940D01*
G01X85090Y95940D02*
X85090Y78160D01*
G54D12*
G01X69890Y93400D02*
X69890Y92500D01*
G01X69890Y92500D02*
X69290Y92500D01*
G01X69290Y92500D02*
X69090Y92700D01*
G01X69090Y92700D02*
X69090Y93200D01*
G01X69090Y93200D02*
X69290Y93400D01*
G01X69290Y93400D02*
X69890Y93400D01*
G01X70990Y92500D02*
X70990Y93400D01*
G01X70990Y93400D02*
X70190Y92500D01*
G01X70190Y92500D02*
X70190Y93400D01*
G01X71290Y93200D02*
X71490Y93400D01*
G01X71490Y93400D02*
X71890Y93400D01*
G01X71890Y93400D02*
X72090Y93200D01*
G01X72090Y93200D02*
X72090Y92700D01*
G01X72090Y92700D02*
X71890Y92500D01*
G01X71890Y92500D02*
X71490Y92500D01*
G01X71490Y92500D02*
X71290Y92700D01*
G01X71290Y92700D02*
X71290Y92900D01*
G01X71290Y92900D02*
X71590Y92900D01*
G54D10*
G01X104140Y137850D02*
X104140Y132770D01*
G54D12*
G01X80050Y93400D02*
X80050Y92500D01*
G01X80050Y92500D02*
X79450Y92500D01*
G01X79450Y92500D02*
X79250Y92700D01*
G01X79250Y92700D02*
X79250Y93200D01*
G01X79250Y93200D02*
X79450Y93400D01*
G01X79450Y93400D02*
X80050Y93400D01*
G01X81150Y92500D02*
X81150Y93400D01*
G01X81150Y93400D02*
X80350Y92500D01*
G01X80350Y92500D02*
X80350Y93400D01*
G01X81450Y93200D02*
X81650Y93400D01*
G01X81650Y93400D02*
X82050Y93400D01*
G01X82050Y93400D02*
X82250Y93200D01*
G01X82250Y93200D02*
X82250Y92700D01*
G01X82250Y92700D02*
X82050Y92500D01*
G01X82050Y92500D02*
X81650Y92500D01*
G01X81650Y92500D02*
X81450Y92700D01*
G01X81450Y92700D02*
X81450Y92900D01*
G01X81450Y92900D02*
X81750Y92900D01*
G01X77810Y123880D02*
X78610Y123880D01*
G01X78610Y123880D02*
X78610Y122980D01*
G01X78610Y123480D02*
X78110Y123480D01*
G01X79310Y123880D02*
X79310Y122980D01*
G01X79410Y123880D02*
X79210Y123880D01*
G01X79410Y122980D02*
X79210Y122980D01*
G54D10*
G01X81280Y102290D02*
X91440Y102290D01*
G01X104140Y137850D02*
X71120Y137850D01*
G54D12*
G01X67350Y123880D02*
X66950Y122980D01*
G01X66950Y122980D02*
X66550Y123880D01*
G01X67650Y123880D02*
X68350Y123880D01*
G01X68350Y123880D02*
X68350Y123480D01*
G01X68350Y123480D02*
X67850Y123480D01*
G01X67850Y123480D02*
X67650Y123280D01*
G01X67650Y123280D02*
X67650Y123180D01*
G01X67650Y123180D02*
X67850Y122980D01*
G01X67850Y122980D02*
X68350Y122980D01*
G01X68350Y122980D02*
X68450Y123080D01*
G01X69550Y123480D02*
X68750Y123480D01*
G01X69150Y123880D02*
X69150Y123080D01*
G54D10*
G01X104140Y137850D02*
X163830Y137850D01*
G54D11*
X104140Y132770D03*
X114300Y114990D03*
X114300Y107370D03*
X91440Y102290D03*
X91440Y95940D03*
X123190Y112450D03*
X123190Y109910D03*
X123190Y107370D03*
X123190Y104830D03*
X123190Y102290D03*
X123190Y99750D03*
X123190Y97210D03*
X130810Y97210D03*
X130810Y99750D03*
X130810Y102290D03*
X130810Y107370D03*
X130810Y109910D03*
X130810Y112450D03*
X161290Y102290D03*
X179070Y99750D03*
X186690Y99750D03*
X186690Y102290D03*
X186690Y104830D03*
X186690Y107370D03*
X186690Y109910D03*
X186690Y112450D03*
X186690Y114990D03*
X179070Y114990D03*
X179070Y112450D03*
X179070Y109910D03*
X179070Y107370D03*
X179070Y104830D03*
X179070Y102290D03*
X186690Y90860D03*
X179070Y90860D03*
X130810Y83240D03*
X123190Y83240D03*
X113030Y83240D03*
X106680Y83240D03*
X91440Y95940D03*
X91440Y102290D03*
X81280Y95940D03*
G54D10*
G01X85090Y95940D02*
X76200Y95940D01*
G54D11*
X71120Y123880D03*
G54D10*
G01X71120Y137850D02*
X71120Y123880D01*
G54D11*
X198120Y104830D03*
X201930Y137850D03*
G54D10*
G01X163830Y137850D02*
X201930Y137850D01*
G01X189230Y104830D02*
X198120Y104830D01*
G54D11*
X71120Y95940D03*
X88900Y83240D03*
X97790Y83240D03*
G54D10*
G01X88900Y83240D02*
X85090Y83240D01*
G01X97790Y83240D02*
X106680Y83240D01*
G54D11*
X99060Y102290D03*
X109220Y102290D03*
G54D12*
G01X133390Y107370D02*
X133390Y106470D01*
G01X133390Y106470D02*
X132790Y106470D01*
G01X132790Y106470D02*
X132590Y106670D01*
G01X132590Y106670D02*
X132590Y107170D01*
G01X132590Y107170D02*
X132790Y107370D01*
G01X132790Y107370D02*
X133390Y107370D01*
G01X134490Y106470D02*
X134490Y107370D01*
G01X134490Y107370D02*
X133690Y106470D01*
G01X133690Y106470D02*
X133690Y107370D01*
G01X134790Y107170D02*
X134990Y107370D01*
G01X134990Y107370D02*
X135390Y107370D01*
G01X135390Y107370D02*
X135590Y107170D01*
G01X135590Y107170D02*
X135590Y106670D01*
G01X135590Y106670D02*
X135390Y106470D01*
G01X135390Y106470D02*
X134990Y106470D01*
G01X134990Y106470D02*
X134790Y106670D01*
G01X134790Y106670D02*
X134790Y106870D01*
G01X134790Y106870D02*
X135090Y106870D01*
G54D10*
G01X99060Y102290D02*
X91440Y102290D01*
G01X123190Y102290D02*
X109220Y102290D01*
G54D11*
X104140Y120070D03*
X104140Y125150D03*
G54D10*
G01X114300Y122610D02*
X93980Y122610D01*
G01X104140Y120070D02*
X104140Y125150D01*
G54D13*
G01X98990Y81370D02*
X97790Y81370D01*
G01X98390Y81970D02*
X98390Y80770D01*
G01X110420Y100420D02*
X109220Y100420D01*
G01X109820Y101020D02*
X109820Y99820D01*
G54D11*
X149860Y102290D03*
G54D10*
G01X149860Y102290D02*
X161290Y102290D01*
G54D13*
G01X151060Y100420D02*
X149860Y100420D01*
G01X150460Y101020D02*
X150460Y99820D01*
G54D11*
X130810Y104830D03*
G54D10*
G01X173990Y107370D02*
X173990Y137850D01*
G54D11*
X93980Y111180D03*
X93980Y120070D03*
G54D10*
G01X93980Y108640D02*
X93980Y111180D01*
G01X76200Y95940D02*
X71120Y95940D01*
G54D11*
X104140Y112450D03*
G54D10*
G01X104140Y107370D02*
X104140Y112450D01*
G01X93980Y108640D02*
X104140Y108640D01*
G01X118110Y104830D02*
X118110Y111180D01*
G01X118110Y111180D02*
X109220Y111180D01*
G01X109220Y111180D02*
X109220Y116260D01*
G01X109220Y116260D02*
X88900Y116260D01*
G01X88900Y116260D02*
X88900Y137850D01*
G54D11*
X81280Y123880D03*
G54D10*
G01X81280Y102290D02*
X81280Y123880D01*
G54D11*
X62230Y107370D03*
X62230Y101020D03*
G54D10*
G01X62230Y101020D02*
X62230Y78160D01*
G01X62230Y107370D02*
X62230Y127690D01*
G01X71120Y127690D02*
X62230Y127690D01*
G01X62230Y78160D02*
X76200Y78160D01*
G01X76200Y78160D02*
X76200Y95940D01*
G01X176530Y102290D02*
X179070Y102290D01*
G54D11*
X140970Y102290D03*
G54D10*
G01X137160Y102290D02*
X140970Y102290D01*
G54D11*
X167640Y102290D03*
G54D10*
G01X167640Y102290D02*
X167640Y102290D01*
G01X167640Y102290D02*
X176530Y102290D01*
G01X201930Y95940D02*
X201930Y78160D01*
G01X130810Y104830D02*
X146050Y104830D01*
G01X146050Y104830D02*
X146050Y78160D01*
G54D11*
X201930Y122610D03*
G54D10*
G01X201930Y120070D02*
X201930Y121340D01*
G01X201930Y120070D02*
X201930Y122610D01*
G01X186690Y107370D02*
X201930Y107370D01*
G01X179070Y104830D02*
X167640Y104830D01*
G01X167640Y104830D02*
X167640Y122610D01*
G01X167640Y122610D02*
X114300Y122610D01*
G54D13*
G01X92640Y122010D02*
X91440Y122010D01*
G01X92040Y122610D02*
X92040Y121410D01*
G54D12*
G01X196890Y103560D02*
X196090Y103560D01*
G01X196490Y103560D02*
X196490Y102660D01*
G01X197990Y103560D02*
X197990Y102960D01*
G01X197990Y102960D02*
X197890Y102760D01*
G01X197890Y102760D02*
X197690Y102660D01*
G01X197690Y102660D02*
X197490Y102660D01*
G01X197490Y102660D02*
X197290Y102760D01*
G01X197290Y102760D02*
X197190Y102960D01*
G01X197190Y102960D02*
X197190Y103560D01*
G01X198790Y103560D02*
X198590Y103560D01*
G01X198590Y103560D02*
X198390Y103460D01*
G01X198390Y103460D02*
X198290Y103260D01*
G01X198290Y103260D02*
X198290Y102960D01*
G01X198290Y102960D02*
X198390Y102760D01*
G01X198390Y102760D02*
X198590Y102660D01*
G01X198590Y102660D02*
X198790Y102660D01*
G01X198790Y102660D02*
X198990Y102760D01*
G01X198990Y102760D02*
X199090Y102960D01*
G01X199090Y102960D02*
X199090Y103260D01*
G01X199090Y103260D02*
X198990Y103460D01*
G01X198990Y103460D02*
X198790Y103560D01*
G01X198160Y122610D02*
X198160Y121710D01*
G01X198160Y121710D02*
X197560Y121710D01*
G01X197560Y121710D02*
X197360Y121910D01*
G01X197360Y121910D02*
X197360Y122410D01*
G01X197360Y122410D02*
X197560Y122610D01*
G01X197560Y122610D02*
X198160Y122610D01*
G01X199260Y121710D02*
X199260Y122610D01*
G01X199260Y122610D02*
X198460Y121710D01*
G01X198460Y121710D02*
X198460Y122610D01*
G01X199560Y122410D02*
X199760Y122610D01*
G01X199760Y122610D02*
X200160Y122610D01*
G01X200160Y122610D02*
X200360Y122410D01*
G01X200360Y122410D02*
X200360Y121910D01*
G01X200360Y121910D02*
X200160Y121710D01*
G01X200160Y121710D02*
X199760Y121710D01*
G01X199760Y121710D02*
X199560Y121910D01*
G01X199560Y121910D02*
X199560Y122110D01*
G01X199560Y122110D02*
X199860Y122110D01*
G54D11*
X129540Y89590D03*
X124460Y89590D03*
G54D10*
G01X124460Y89590D02*
X120650Y89590D01*
G54D11*
X185420Y84510D03*
X180340Y84510D03*
G54D10*
G01X180340Y84510D02*
X176530Y84510D01*
M02*
