G04 format : xxx.xxx unité : millimètre *
%FSLAX33Y33*
MOMM*
OFA0B0*
SFA1B1*
IPPOS*%
G04 définition des ouvertures pour les pastilles rondes *
%ADD10C,2.220X0.2*%
G04 tracé du CI *
G54D10*
X104140Y132770D03*
X114300Y114990D03*
X114300Y107370D03*
X91440Y102290D03*
X91440Y95940D03*
X123190Y112450D03*
X123190Y109910D03*
X123190Y107370D03*
X123190Y104830D03*
X123190Y102290D03*
X123190Y99750D03*
X123190Y97210D03*
X130810Y97210D03*
X130810Y99750D03*
X130810Y102290D03*
X130810Y107370D03*
X130810Y109910D03*
X130810Y112450D03*
X161290Y102290D03*
X179070Y99750D03*
X186690Y99750D03*
X186690Y102290D03*
X186690Y104830D03*
X186690Y107370D03*
X186690Y109910D03*
X186690Y112450D03*
X186690Y114990D03*
X179070Y114990D03*
X179070Y112450D03*
X179070Y109910D03*
X179070Y107370D03*
X179070Y104830D03*
X179070Y102290D03*
X186690Y90860D03*
X179070Y90860D03*
X130810Y83240D03*
X123190Y83240D03*
X113030Y83240D03*
X106680Y83240D03*
X91440Y95940D03*
X91440Y102290D03*
X81280Y95940D03*
X71120Y123880D03*
X198120Y104830D03*
X201930Y137850D03*
X71120Y95940D03*
X88900Y83240D03*
X97790Y83240D03*
X99060Y102290D03*
X109220Y102290D03*
X104140Y120070D03*
X104140Y125150D03*
X149860Y102290D03*
X130810Y104830D03*
X93980Y111180D03*
X93980Y120070D03*
X104140Y112450D03*
X81280Y123880D03*
X62230Y107370D03*
X62230Y101020D03*
X140970Y102290D03*
X167640Y102290D03*
X201930Y122610D03*
X129540Y89590D03*
X124460Y89590D03*
X185420Y84510D03*
X180340Y84510D03*
M02*
